# xmcd
#
# Track frame offsets:
#	150
#	57737
#	86541
#	102182
#	125776
#	143429
#	160411
#	173429
#	200258
#	223646
#	241716
#	253027
#	262480
#	274533
#	298899
#	323434
#
# Disc length: 4547
#
# Revision: 1
# Processed by: cddbd v1.5.1PL0 Copyright (c) Steve Scherf et al.
# Submitted via: EasyCDDAExtractor 4.6.9.1
# Normalized: r0:DSETVAR1,TDELIM( - )
#
DISCID=ed11c110
DTITLE=Various Artist - Classic Blues Vol. 2
DYEAR=1900
DGENRE=Blues
TTITLE0=Onwright - God Bless Our Love
TTITLE1=Clarence Carter - Strokin
TTITLE2=Staple Singers - Let's Do It Again
TTITLE3=Peggy Scott Adams - Bill
TTITLE4=Shirley Brown - Woman to Woman
TTITLE5=Major Harris - Love Won't Let Me Wait
TTITLE6=Jerry Butler - One Night Affair
TTITLE7=Millie Jackson - Love Is A Dangerous Game
TTITLE8=Betty Wright - No Pain No Gain
TTITLE9=Johnnie Taylor - I Don't Wanna Lose You
TTITLE10=Otis Redding - These Arms of Mine
TTITLE11=James Brown - Papa's Got a Brand New Bag
TTITLE12=Bobby Bland - I Pity the Fool
TTITLE13=BB King - The Thrill is Gone
TTITLE14=Bobby Womack, Ron Isley - Trying
TTITLE15=Issac Hayes, Millie Jackson - Love Changes
EXTD=
EXTT0=
EXTT1=
EXTT2=
EXTT3=
EXTT4=
EXTT5=
EXTT6=
EXTT7=
EXTT8=
EXTT9=
EXTT10=
EXTT11=
EXTT12=
EXTT13=
EXTT14=
EXTT15=
PLAYORDER=
